<svg style="position: absolute; width: 0; height: 0;" width="0" height="0" version="1.1"
     xmlns="http://www.w3.org/2000/svg" xmlns:xlink="http://www.w3.org/1999/xlink">

    <defs>

        <symbol id="youtube" viewBox="0 0 30 30">
            <path class="social-bg" d="M13.1316 17.8101L18.0109 14.9999L13.1316 12.1897V17.8101Z" />
            <path class="social-bg" d="M15 0C6.717 0 0 6.717 0 15C0 23.283 6.717 30 15 30C23.283 30 30 23.283 30 15C30 6.717 23.283 0 15 0ZM24.3727 15.0153C24.3727 15.0153 24.3727 18.0574 23.9868 19.5243C23.7705 20.3272 23.1374 20.9603 22.3345 21.1764C20.8676 21.5625 15 21.5625 15 21.5625C15 21.5625 9.14772 21.5625 7.66548 21.161C6.86256 20.945 6.22948 20.3117 6.01318 19.5087C5.62706 18.0574 5.62706 15 5.62706 15C5.62706 15 5.62706 11.9582 6.01318 10.4913C6.22925 9.68834 6.8779 9.03969 7.66548 8.82362C9.13239 8.4375 15 8.4375 15 8.4375C15 8.4375 20.8676 8.4375 22.3345 8.83896C23.1374 9.05502 23.7705 9.68834 23.9868 10.4913C24.3883 11.9582 24.3727 15.0153 24.3727 15.0153Z" />
        </symbol>
        
        <symbol id="instagram" viewBox="0 0 30 30">
            <path class="social-bg" d="M17.8711 15C17.8711 16.5857 16.5857 17.8711 15 17.8711C13.4143 17.8711 12.1289 16.5857 12.1289 15C12.1289 13.4143 13.4143 12.1289 15 12.1289C16.5857 12.1289 17.8711 13.4143 17.8711 15Z" />
            <path class="social-bg" d="M21.7144 9.92015C21.5764 9.54616 21.3562 9.20764 21.0701 8.92978C20.7923 8.64368 20.454 8.42349 20.0797 8.28548C19.7762 8.1676 19.3203 8.0273 18.4805 7.98907C17.5721 7.94765 17.2997 7.93872 14.9999 7.93872C12.6999 7.93872 12.4275 7.94742 11.5193 7.98885C10.6796 8.0273 10.2234 8.1676 9.92014 8.28548C9.54591 8.42349 9.2074 8.64368 8.92976 8.92978C8.64366 9.20764 8.42348 9.54593 8.28523 9.92015C8.16736 10.2236 8.02705 10.6798 7.98883 11.5196C7.9474 12.4278 7.93848 12.7001 7.93848 15.0002C7.93848 17.3 7.9474 17.5724 7.98883 18.4808C8.02705 19.3206 8.16736 19.7765 8.28523 20.08C8.42348 20.4542 8.64343 20.7925 8.92953 21.0704C9.2074 21.3565 9.54568 21.5766 9.91991 21.7147C10.2234 21.8328 10.6796 21.9731 11.5193 22.0113C12.4275 22.0527 12.6997 22.0614 14.9997 22.0614C17.3 22.0614 17.5723 22.0527 18.4803 22.0113C19.3201 21.9731 19.7762 21.8328 20.0797 21.7147C20.8309 21.4249 21.4247 20.8312 21.7144 20.08C21.8323 19.7765 21.9726 19.3206 22.011 18.4808C22.0525 17.5724 22.0612 17.3 22.0612 15.0002C22.0612 12.7001 22.0525 12.4278 22.011 11.5196C21.9728 10.6798 21.8325 10.2236 21.7144 9.92015ZM14.9999 19.4229C12.5571 19.4229 10.5768 17.4428 10.5768 15C10.5768 12.5571 12.5571 10.577 14.9999 10.577C17.4426 10.577 19.4229 12.5571 19.4229 15C19.4229 17.4428 17.4426 19.4229 14.9999 19.4229ZM19.5977 11.4358C19.0269 11.4358 18.5641 10.973 18.5641 10.4022C18.5641 9.83134 19.0269 9.36855 19.5977 9.36855C20.1685 9.36855 20.6313 9.83134 20.6313 10.4022C20.6311 10.973 20.1685 11.4358 19.5977 11.4358Z" />
            <path class="social-bg" d="M15 0C6.717 0 0 6.717 0 15C0 23.283 6.717 30 15 30C23.283 30 30 23.283 30 15C30 6.717 23.283 0 15 0ZM23.5613 18.5511C23.5197 19.468 23.3739 20.094 23.161 20.6419C22.7135 21.7989 21.7989 22.7135 20.6419 23.161C20.0942 23.3739 19.468 23.5194 18.5513 23.5613C17.6328 23.6032 17.3394 23.6133 15.0002 23.6133C12.6608 23.6133 12.3676 23.6032 11.4489 23.5613C10.5322 23.5194 9.90601 23.3739 9.35829 23.161C8.78334 22.9447 8.26286 22.6057 7.83257 22.1674C7.39449 21.7374 7.05551 21.2167 6.83922 20.6419C6.62636 20.0942 6.48056 19.468 6.4389 18.5513C6.39656 17.6326 6.38672 17.3392 6.38672 15C6.38672 12.6608 6.39656 12.3674 6.43867 11.4489C6.48033 10.532 6.6259 9.90601 6.83876 9.35806C7.05505 8.78334 7.39426 8.26263 7.83257 7.83257C8.26263 7.39426 8.78334 7.05528 9.35806 6.83899C9.90601 6.62613 10.532 6.48056 11.4489 6.43867C12.3674 6.39679 12.6608 6.38672 15 6.38672C17.3392 6.38672 17.6326 6.39679 18.5511 6.4389C19.468 6.48056 20.094 6.62613 20.6419 6.83876C21.2167 7.05505 21.7374 7.39426 22.1677 7.83257C22.6057 8.26286 22.9449 8.78334 23.161 9.35806C23.3741 9.90601 23.5197 10.532 23.5616 11.4489C23.6034 12.3674 23.6133 12.6608 23.6133 15C23.6133 17.3392 23.6034 17.6326 23.5613 18.5511Z" />
        </symbol>

        <symbol id="facebook" viewBox="0 0 30 30">
            <path class="social-bg" d="M30 15C30 6.71484 23.2852 0 15 0C6.71484 0 0 6.71484 0 15C0 23.2852 6.71484 30 15 30C15.0879 30 15.1758 30 15.2637 29.9941V18.3223H12.041V14.5664H15.2637V11.8008C15.2637 8.5957 17.2207 6.84961 20.0801 6.84961C21.4512 6.84961 22.6289 6.94922 22.9688 6.99609V10.3477H21C19.4473 10.3477 19.1426 11.0859 19.1426 12.1699V14.5605H22.8633L22.377 18.3164H19.1426V29.4199C25.4121 27.6211 30 21.8496 30 15Z" />
        </symbol>

        <symbol id="play" viewBox="0 0 25 25">
            <path d="M12.5 0C5.60708 0 0 5.60762 0 12.5C0 19.3924 5.60708 25 12.5 25C19.3929 25 25 19.3924 25 12.5C25 5.60762 19.3929 0 12.5 0ZM12.5 23.9583C6.18184 23.9583 1.04165 18.8182 1.04165 12.5C1.04165 6.18184 6.18184 1.04165 12.5 1.04165C18.8182 1.04165 23.9583 6.18184 23.9583 12.5C23.9583 18.8182 18.8182 23.9583 12.5 23.9583Z" />
            <path d="M17.4693 12.062L10.1776 7.37451C10.0179 7.27026 9.81143 7.26465 9.64663 7.35518C9.47876 7.44673 9.375 7.62173 9.375 7.81245V17.1874C9.375 17.3782 9.47876 17.5532 9.64663 17.6447C9.72393 17.687 9.8104 17.7083 9.89585 17.7083C9.99351 17.7083 10.0922 17.6808 10.1776 17.6254L17.4693 12.9379C17.6178 12.8423 17.7083 12.677 17.7083 12.5C17.7083 12.3229 17.6178 12.1577 17.4693 12.062ZM10.4167 16.2332V8.76665L16.2242 12.5L10.4167 16.2332Z" />
        </symbol>

   </defs>
</svg>